<?xml version="1.0" encoding="utf-8"?>
<!-- Generator: Adobe Illustrator 18.0.0, SVG Export Plug-In . SVG Version: 6.00 Build 0)  -->
<!DOCTYPE svg PUBLIC "-//W3C//DTD SVG 1.1//EN" "http://www.w3.org/Graphics/SVG/1.1/DTD/svg11.dtd">
<svg version="1.1" id="Capa_1" xmlns="http://www.w3.org/2000/svg" xmlns:xlink="http://www.w3.org/1999/xlink" x="0px" y="0px"
	 viewBox="0 0 355 396" enable-background="new 0 0 355 396" xml:space="preserve">
<polygon fill="#FFFFFF" stroke="#437BBA" stroke-miterlimit="10" points="351,297 177.7,396 4.3,297 4.3,99 177.7,0 351,99 "/>
<polygon fill="#437BBA" stroke="#437BBA" stroke-miterlimit="10" points="303.7,273 180.3,344 57,273 57,131.1 180.3,60.1 
	303.7,131.1 "/>
<path fill="#FFFFFF" d="M211.1,210.2l-29,29c-2.3,2.3-5.9,2.3-8.2,0l-29-29c-2.3-2.3-2.3-5.9,0-8.2c2.3-2.3,5.9-2.3,8.2,0l19.1,19.1
	v-55.6c0-3.2,2.6-5.8,5.8-5.8s5.8,2.6,5.8,5.8v55.6l19.1-19.1c1.1-1.1,2.6-1.7,4.1-1.7s3,0.6,4.1,1.7
	C213.3,204.3,213.3,207.9,211.1,210.2z"/>
</svg>
